<?xml version="1.0" standalone="no"?>
<!DOCTYPE svg PUBLIC "-//W3C//DTD SVG 20010904//EN"
 "http://www.w3.org/TR/2001/REC-SVG-20010904/DTD/svg10.dtd">
<svg version="1.0" xmlns="http://www.w3.org/2000/svg"
 width="512.000000pt" height="512.000000pt" viewBox="0 0 512.000000 512.000000"
 preserveAspectRatio="xMidYMid meet">
<metadata>
Created by potrace 1.11, written by Peter Selinger 2001-2013
</metadata>
<g transform="translate(0.000000,512.000000) scale(0.100000,-0.100000)"
fill="#000000" stroke="none">
<path d="M1477 3434 c-1 -1 -29 -4 -63 -8 -193 -20 -389 -119 -528 -267 -156
-165 -235 -360 -240 -587 -5 -251 91 -477 278 -656 77 -73 246 -176 316 -191
8 -2 44 -11 80 -21 70 -18 267 -25 352 -12 141 23 319 110 436 214 121 108
221 275 263 439 32 128 31 303 -3 432 l-24 92 36 19 c109 60 228 64 351 11
l48 -21 -14 -37 c-13 -35 -28 -99 -40 -173 -3 -20 -6 -70 -6 -110 -1 -393 252
-729 637 -844 78 -23 107 -27 234 -27 123 -1 157 2 229 22 162 46 281 117 401
240 169 173 253 384 249 621 -5 270 -121 505 -334 677 -93 75 -251 149 -362
168 -74 13 -89 15 -179 16 -184 1 -341 -47 -499 -154 -61 -42 -171 -146 -200
-191 l-16 -25 -47 24 c-96 47 -151 60 -267 60 -117 0 -169 -12 -273 -63 l-53
-26 -16 25 c-69 99 -236 231 -358 282 -62 26 -162 57 -173 55 -4 -1 -23 2 -42
5 -30 6 -168 14 -173 11z m173 -227 c62 -12 58 -11 85 -21 279 -101 460 -366
449 -653 -10 -249 -160 -473 -386 -578 -97 -44 -192 -63 -303 -60 -412 13
-719 415 -621 813 3 12 8 32 11 45 2 12 23 60 46 106 31 64 60 103 118 161
118 119 250 183 413 198 88 8 100 7 188 -11z m2103 -3 c242 -72 406 -230 479
-462 22 -70 31 -239 16 -312 -67 -322 -350 -546 -676 -535 -306 11 -557 220
-627 523 -17 71 -12 243 8 315 73 256 306 457 561 483 22 2 41 6 42 7 5 5 174
-12 197 -19z"/>
</g>
</svg>
