<?xml version="1.0" standalone="no"?>
<!DOCTYPE svg PUBLIC "-//W3C//DTD SVG 20010904//EN"
 "http://www.w3.org/TR/2001/REC-SVG-20010904/DTD/svg10.dtd">
<svg version="1.0" xmlns="http://www.w3.org/2000/svg"
 width="70.000000pt" height="70.000000pt" viewBox="0 0 70.000000 70.000000"
 preserveAspectRatio="xMidYMid meet">
<metadata>
Created by potrace 1.11, written by Peter Selinger 2001-2013
</metadata>
<g transform="translate(0.000000,70.000000) scale(0.100000,-0.100000)"
fill="#000000" stroke="none">
<path d="M579 665 c-83 -17 -214 -100 -272 -172 -31 -38 -84 -65 -131 -65 -43
0 -48 -3 -107 -66 -22 -23 -59 -84 -59 -97 0 -6 26 -11 62 -10 56 0 65 3 79
25 9 14 26 26 37 27 27 2 28 -8 2 -25 -11 -7 -20 -19 -20 -27 0 -8 -10 -20
-22 -26 -13 -6 -34 -25 -47 -41 -14 -18 -29 -27 -39 -23 -12 4 -13 3 -2 -10
10 -12 9 -20 -5 -41 -9 -14 -14 -28 -11 -31 2 -3 1 -16 -4 -29 -7 -17 -6 -24
3 -26 6 0 19 -2 27 -3 8 -1 30 8 49 19 19 11 31 15 28 9 -4 -7 -3 -15 3 -18 6
-4 10 -3 9 2 -3 11 150 167 157 160 9 -9 -16 -47 -29 -44 -8 1 -13 -20 -14
-70 -2 -60 0 -71 12 -67 8 4 15 11 15 17 0 6 3 8 6 4 7 -7 63 33 104 72 19 19
25 36 26 71 0 50 11 64 106 146 43 37 127 164 134 202 3 14 9 31 13 37 6 9 7
27 3 77 -3 26 -50 36 -113 23z"/>
</g>
</svg>
