<?xml version="1.0" standalone="no"?>
<!DOCTYPE svg PUBLIC "-//W3C//DTD SVG 20010904//EN"
 "http://www.w3.org/TR/2001/REC-SVG-20010904/DTD/svg10.dtd">
<svg version="1.0" xmlns="http://www.w3.org/2000/svg"
 width="512.000000pt" height="512.000000pt" viewBox="0 0 512.000000 512.000000"
 preserveAspectRatio="xMidYMid meet">
<metadata>
Created by potrace 1.11, written by Peter Selinger 2001-2013
</metadata>
<g transform="translate(0.000000,512.000000) scale(0.100000,-0.100000)"
fill="#000000" stroke="none">
<path d="M3325 5074 c-82 -145 -115 -203 -137 -244 -14 -25 -76 -135 -138
-245 -62 -110 -124 -220 -138 -245 -14 -25 -97 -173 -185 -330 -88 -157 -169
-300 -179 -319 -11 -19 -31 -56 -45 -83 -14 -26 -28 -48 -32 -48 -4 0 -13 11
-18 23 -6 13 -147 266 -313 563 -384 686 -430 767 -440 777 -6 7 -243 -403
-375 -648 -33 -61 -260 -465 -284 -505 -11 -19 -35 -62 -53 -95 -18 -33 -37
-68 -43 -78 -34 -57 -235 -419 -235 -423 0 -2 29 -3 65 -2 36 2 65 0 65 -4 0
-3 -18 -38 -40 -77 -97 -171 -356 -633 -393 -701 -17 -30 -36 -64 -44 -75 -7
-11 -13 -23 -13 -27 0 -5 61 -8 135 -8 74 0 135 -2 135 -5 0 -2 -13 -27 -29
-54 -16 -27 -83 -146 -149 -263 -65 -117 -130 -233 -144 -258 -14 -25 -66
-117 -115 -205 l-90 -160 600 -3 c351 -1 603 -6 607 -11 4 -8 6 -373 1 -391 0
-3 -196 -5 -434 -5 -388 0 -438 -2 -495 -18 -139 -40 -254 -134 -314 -257 -52
-106 -57 -140 -58 -405 l-1 -245 2561 0 2560 0 0 243 c0 186 -4 257 -15 302
-48 181 -192 322 -380 370 -48 12 -137 15 -487 15 l-428 0 0 200 0 200 610 0
c336 0 610 2 610 5 0 3 -380 684 -529 948 -12 21 -19 41 -17 45 2 4 65 7 140
6 75 0 136 2 136 6 0 3 -48 92 -106 196 -129 229 -131 232 -288 514 l-126 225
71 3 c39 2 69 6 67 11 -3 8 -124 224 -586 1046 -173 308 -329 587 -347 620
-19 33 -47 84 -63 114 l-30 53 -27 -48z m-435 -3944 l0 -200 -175 -1 c-96 0
-276 -1 -400 -2 l-225 -2 -1 45 c-1 56 -1 330 0 348 1 9 88 12 401 12 l400 0
0 -200z"/>
</g>
</svg>
