<?xml version="1.0" standalone="no"?>
<!DOCTYPE svg PUBLIC "-//W3C//DTD SVG 20010904//EN"
 "http://www.w3.org/TR/2001/REC-SVG-20010904/DTD/svg10.dtd">
<svg version="1.0" xmlns="http://www.w3.org/2000/svg"
 width="16.000000pt" height="16.000000pt" viewBox="0 0 16.000000 16.000000"
 preserveAspectRatio="xMidYMid meet">
<metadata>
Created by potrace 1.11, written by Peter Selinger 2001-2013
</metadata>
<g transform="translate(0.000000,16.000000) scale(0.003783,-0.003783)"
fill="#000000" stroke="none">
<path d="M745 3319 c-54 -26 -79 -70 -78 -135 0 -43 10 -70 55 -155 75 -140
106 -197 168 -309 29 -52 60 -107 67 -122 27 -52 15 -68 -100 -144 -386 -257
-634 -570 -755 -954 -54 -169 -101 -431 -102 -557 l0 -53 2115 0 2115 0 0 60
c0 128 -51 393 -106 554 -49 142 -152 344 -231 456 -77 106 -232 272 -331 354
-37 29 -119 89 -182 133 -144 98 -143 96 -64 236 153 272 247 455 251 488 4
27 -1 52 -17 85 -43 88 -154 108 -226 40 -29 -27 -105 -156 -303 -515 -26 -48
-56 -88 -69 -94 -18 -8 -51 -4 -150 21 -485 121 -972 122 -1388 1 -56 -16
-111 -29 -122 -29 -30 0 -62 44 -137 187 -100 191 -216 395 -239 422 -24 27
-75 51 -108 51 -13 -1 -41 -10 -63 -21z"/>
</g>
</svg>
